<?xml version="1.0" encoding="utf-8"?>
<?xml-stylesheet type="text/xsl" href="rss1.xsl"?>
<rss version="2.0" xmlns:atom="http://www.w3.org/2005/Atom" xmlns:content="http://purl.org/rss/1.0/modules/content/" xmlns:dc="http://purl.org/dc/elements/1.1/" xmlns:media="http://search.yahoo.com/mrss/">
<channel>
 <title>Getty</title>
 <link>http://www.gettyimg.com/</link>
 <atom:link href="http://www.gettyimg.com/" rel="self" type="application/rss+xml" />

 
                <item>
                <title><![CDATA[【Albums (lossless)】FLAC - Madonna - Music (Japanese Edition) | CD Rip | .FLAC 16bits ／ 44.1kHz]]></title>
                <link><![CDATA[https://sharemania.us/threads/madonna-music-japanese-edition-cd-rip-flac-16bits-%EF%BC%8F-44-1khz.249930/]]></link>
                <description><![CDATA[<article>
<blockquote class="messageText SelectQuoteContainer ugc baseHtml">
<div style="text-align: center"><span style="font-family: 'Book Antiqua'"><span style="font-size: 12px"><span style="color: #000000"><img src="https://i.imgur.com/3sclcP4.jpeg" class="bbCodeImage LbImage" alt="[​IMG]" data-url="https://i.imgur.com/3sclcP4.jpeg" style=""> <br>
<br>
includes the japanese bonus track "<i><b>Cyber-Raga</b></i>".<br>
<br>
<div class="ToggleTriggerAnchor bbCodeSpoilerContainer">
<button type="button" class="button bbCodeSpoilerButton ToggleTrigger Tooltip JsOnly" data-target="> .SpoilerTarget"><span>Spoiler: <span class="SpoilerTitle">.log</span></span></button>
<div class="SpoilerTarget bbCodeSpoilerText">Exact Audio Copy V0.99 prebeta 4 from 23. January 2008 <br>
<br>
Отчёт EAC об извлечении, выполненном 26. июля 2008, 10:55 <br>
<br>
Madonna / Music (Japanese Edition)<br>
<br>
Дисковод: PIONEER DVD-RW DVR-212 Adapter: 1 ID: 1 <br>
<br>
Режим чтения : Достоверность <br>
Использование точного потока : Да <br>
Отключение кэша аудио : Да <br>
Использование указателей C2 : Нет <br>
<br>
Коррекция смещения при чтении : 48 <br>
Способность читать области Lead-in и Lead-out : Нет <br>
Заполнение пропущенных сэмплов тишиной : Да <br>
Удаление блоков с тишиной в начале и конце : Нет <br>
При вычислениях CRC использовались нулевые сэмплы : Нет <br>
Интерфейс : Встроенный Win32-интерфейс для Win NT/2000 <br>
<br>
Выходной формат : Внутренние WAV-операции <br>
Формат сэмплов : 44.100 Гц; 16 бит; стерео <br>
<br>
<br>
TOC извлечённого CD <br>
<br>
Трек | Старт | Длительность | Начальный сектор | Конечный сектор <br>
--------------------------------------------------------------------- <br>
1 | 0:00.00 | 3:45.32 | 0 | 16906 <br>
2 | 3:45.32 | 3:37.43 | 16907 | 33224 <br>
3 | 7:23.00 | 4:47.17 | 33225 | 54766 <br>
4 | 12:10.17 | 4:23.43 | 54767 | 74534 <br>
5 | 16:33.60 | 3:43.15 | 74535 | 91274 <br>
6 | 20:17.00 | 4:58.70 | 91275 | 113694 <br>
7 | 25:15.70 | 4:40.00 | 113695 | 134694 <br>
8 | 29:55.70 | 4:43.67 | 134695 | 155986 <br>
9 | 34:39.62 | 6:33.40 | 155987 | 185501 <br>
10 | 41:13.27 | 3:29.05 | 185502 | 201181 <br>
11 | 44:42.32 | 4:35.28 | 201182 | 221834 <br>
12 | 49:17.60 | 5:33.15 | 221835 | 246824 <br>
<br>
<br>
Характеристики диапазона извлечения и сообщения об ошибках <br>
<br>
Выбранный диапазон <br>
<br>
Имя файла E:\EAC rips\Madonna - Music (Japanese Edition)\Madonna - Music (Japanese Edition).wav <br>
<br>
Пиковый уровень 100.0 % <br>
Качество диапазона 100.0 % <br>
CRC копии 4BE24C7A <br>
Копирование... OK <br>
<br>
Ошибок не произошло <br>
<br>
<br>
AccurateRip: сводка <br>
<br>
Трек 1 нет в базе данных <br>
Трек 2 нет в базе данных <br>
Трек 3 нет в базе данных <br>
Трек 4 нет в базе данных <br>
Трек 5 нет в базе данных <br>
Трек 6 нет в базе данных <br>
Трек 7 нет в базе данных <br>
Трек 8 нет в базе данных <br>
Трек 9 нет в базе данных <br>
Трек 10 нет в базе данных <br>
Трек 11 нет в базе данных <br>
Трек 12 нет в базе данных <br>
<br>
Ни одного трека нет в базе AccurateRip <br>
<br>
Конец отчёта</div>
</div><br>
<div class="bbCodeBlock bbCodeVfcHH HiddenContent">
<div class="attribution type">Hidden Content:</div>
<blockquote>You must reply before you can see the hidden data contained here.</blockquote>
</div></span></span></span><br>
​</div>
<div class="messageTextEndMarker">&nbsp;</div>
</blockquote>
</article>]]></description>
                <author><![CDATA[Nuric]]></author>
                </item>

                
                <item>
                <title><![CDATA[【Requests】[REQ AUD] - (Apple) 98jams - New Day/UP]]></title>
                <link><![CDATA[https://sharemania.us/threads/apple-98jams-new-day-up.249931/]]></link>
                <description><![CDATA[<article>
<blockquote class="messageText SelectQuoteContainer ugc baseHtml">
Thank you so much!
<div class="messageTextEndMarker">&nbsp;</div>
</blockquote>
</article>]]></description>
                <author><![CDATA[Nico Robin]]></author>
                </item>

                
                <item>
                <title><![CDATA[【Singles (lossless)】WAV - Jessica Simpson  - Irresistable (Radio Disney Version)]]></title>
                <link><![CDATA[https://sharemania.us/threads/jessica-simpson-irresistable-radio-disney-version.249932/]]></link>
                <description><![CDATA[<article>
<blockquote class="messageText SelectQuoteContainer ugc baseHtml">
ALAC<br>
<br>
Single<br>
<a href="https://music.apple.com/jp/album/98s-up-ep/1687580885" target="_blank" class="externalLink" rel="nofollow">https://music.apple.com/jp/album/new-day-feat-1ich-paddy-kiddy-tome-eyden-single/1701171455<br>
</a><br>
EP<br>
<a href="https://music.apple.com/jp/album/98s-up-ep/1687580885" target="_blank" class="externalLink" rel="nofollow">https://music.apple.com/jp/album/98s-up-ep/1687580885</a><br>
<br>
Somebody please.
<div class="messageTextEndMarker">&nbsp;</div>
</blockquote>
</article>]]></description>
                <author><![CDATA[ifuseekme]]></author>
                </item>

                
                <item>
                <title><![CDATA[【Cinema Center】SERIES - One Day at Disney Shorts - Season 1 - 2160p Disney+ WEB-DL DDP5.1 DV/HDR H.265-LAZY]]></title>
                <link><![CDATA[https://sharemania.us/threads/one-day-at-disney-shorts-season-1-2160p-disney-web-dl-ddp5-1-dv-hdr-h-265-lazy.249937/]]></link>
                <description><![CDATA[<article>
<blockquote class="messageText SelectQuoteContainer ugc baseHtml">
<div style="text-align: center"><img src="https://images.genius.com/7f28382729dc19c20798a9c19d3394c9.1000x1000x1.jpg" class="bbCodeImage LbImage" alt="[​IMG]" data-url="https://images.genius.com/7f28382729dc19c20798a9c19d3394c9.1000x1000x1.jpg" style=""><br>
has alternative lyrics in the first verse and pre chorus. Sourced from Lizzie Mcguire Soundtrack CD<br>
<img src="https://s7.krakenfiles.com/uploads/15-07-2024/U1yCBgDRJe/spectrum.png" class="bbCodeImage LbImage" alt="[​IMG]" data-url="https://s7.krakenfiles.com/uploads/15-07-2024/U1yCBgDRJe/spectrum.png" style=""><br>
<div class="bbCodeBlock bbCodeVfcHH HiddenContent">
<div class="attribution type">Hidden Content:</div>
<blockquote>You must reply before you can see the hidden data contained here.</blockquote>
</div></div>
<div class="messageTextEndMarker">&nbsp;</div>
</blockquote>
</article>]]></description>
                <author><![CDATA[LazyRips]]></author>
                </item>

                
                <item>
                <title><![CDATA[【Cinema Center】SERIES - Princess Power - Season 3 - 1080p Netflix WEB-DL DDP5.1 x264-LAZY]]></title>
                <link><![CDATA[https://sharemania.us/threads/princess-power-season-3-1080p-netflix-web-dl-ddp5-1-x264-lazy.249938/]]></link>
                <description><![CDATA[<article>
<blockquote class="messageText SelectQuoteContainer ugc baseHtml">
<b><span style="font-size: 22px"><span style="color: #a64dff">Thanks!</span></span></b>
<div class="messageTextEndMarker">&nbsp;</div>
</blockquote>
</article>]]></description>
                <author><![CDATA[LazyRips]]></author>
                </item>

                
                <item>
                <title><![CDATA[【SD】DC Project feat. Alexa - Mary's Prayer (VHS)]]></title>
                <link><![CDATA[https://sharemania.us/threads/dc-project-feat-alexa-marys-prayer-vhs.249934/]]></link>
                <description><![CDATA[<article>
<blockquote class="messageText SelectQuoteContainer ugc baseHtml">
One Day at Disney Shorts:<img src="https://cdn2.broadcasthe.net/tvdb/banners/v4/series/368581/banners/64a30eed59537.jpg" class="bbCodeImage LbImage" alt="[​IMG]" data-url="https://cdn2.broadcasthe.net/tvdb/banners/v4/series/368581/banners/64a30eed59537.jpg" style=""> <br>
<br>
<div class="bbCodeBlock bbCodeQuote">
<aside>
<blockquote class="quoteContainer"><div class="quote"><i><b>Synopsis:</b></i><br>
One Day At Disney is a documentary series highlighting the diverse group of people behind some of Disney’s most magical stories. From the heart of the Disney Parks to the streets of Madrid, travel to locations both near and far to meet the men and women who spend each day bringing magic to life in unique and exciting ways. Whether they're animating beloved characters, driving the Main Street Trolley or discovering the next Disney Channel star, every episode is an in-depth look into the lives of the cast members dedicated to continually creating memorable and heartwarming moments for people around the world.</div><div class="quoteExpand">Click to expand...</div></blockquote>
</aside>
</div>
<div class="ToggleTriggerAnchor bbCodeSpoilerContainer">
<button type="button" class="button bbCodeSpoilerButton ToggleTrigger Tooltip JsOnly" data-target="> .SpoilerTarget"><span>Spoiler: <span class="SpoilerTitle">MediaInfo</span></span></button>
<div class="SpoilerTarget bbCodeSpoilerText">General<br>
Unique ID : 111173952666403440936788842499850738179 (0x53A3530EFFA8E714E174AA5DA6F59A03)<br>
Complete name : One.Day.at.Disney.Shorts.S01E01.Eric.Goldberg.Animator.2160p.DSNP.WEB-DL.DDP5.1.DV.HDR.H.265-LAZY.mkv<br>
Format : Matroska<br>
Format version : Version 4<br>
File size : 685 MiB<br>
Duration : 5 min 47 s<br>
Overall bit rate : 16.5 Mb/s<br>
Frame rate : 23.976 FPS<br>
Encoded date : 2024-06-14 13:38:36 UTC<br>
Writing application : mkvmerge v84.0 ('Sleeper') 64-bit<br>
Writing library : libebml v1.4.5 + libmatroska v1.7.1<br>
<br>
Video<br>
ID : 1<br>
Format : HEVC<br>
Format/Info : High Efficiency Video Coding<br>
Format profile : Main 10@L5@High<br>
HDR format : Dolby Vision, Version 1.0, Profile 8, dvhe.08.06, BL+RPU, HDR10 compatible<br>
Codec ID : V_MPEGH/ISO/HEVC<br>
Duration : 5 min 47 s<br>
Bit rate : 16.3 Mb/s<br>
Width : 3 840 pixels<br>
Height : 2 160 pixels<br>
Display aspect ratio : 16:9<br>
Frame rate mode : Constant<br>
Frame rate : 23.976 (24000/1001) FPS<br>
Color space : YUV<br>
Chroma subsampling : 4:2:0<br>
Bit depth : 10 bits<br>
Bits/(Pixel*Frame) : 0.082<br>
Stream size : 674 MiB (98%)<br>
Default : Yes<br>
Forced : No<br>
Color range : Limited<br>
Color primaries : BT.2020<br>
Transfer characteristics : PQ<br>
Matrix coefficients : BT.2020 non-constant<br>
<br>
Audio<br>
ID : 2<br>
Format : E-AC-3<br>
Format/Info : Enhanced AC-3<br>
Commercial name : Dolby Digital Plus<br>
Codec ID : A_EAC3<br>
Duration : 5 min 47 s<br>
Bit rate mode : Constant<br>
Bit rate : 256 kb/s<br>
Channel(s) : 6 channels<br>
Channel layout : L R C LFE Ls Rs<br>
Sampling rate : 48.0 kHz<br>
Frame rate : 31.250 FPS (1536 SPF)<br>
Compression mode : Lossy<br>
Stream size : 10.6 MiB (2%)<br>
Language : English<br>
Service kind : Complete Main<br>
Default : Yes<br>
Forced : No<br>
<br>
Text #1<br>
ID : 3<br>
Format : UTF-8<br>
Codec ID : S_TEXT/UTF8<br>
Codec ID/Info : UTF-8 Plain Text<br>
Duration : 5 min 31 s<br>
Bit rate : 96 b/s<br>
Frame rate : 0.259 FPS<br>
Count of elements : 86<br>
Stream size : 3.91 KiB (0%)<br>
Title : SDH<br>
Language : English<br>
Default : No<br>
Forced : No<br>
<br>
Text #2<br>
ID : 4<br>
Format : UTF-8<br>
Codec ID : S_TEXT/UTF8<br>
Codec ID/Info : UTF-8 Plain Text<br>
Duration : 5 min 42 s<br>
Bit rate : 81 b/s<br>
Frame rate : 0.245 FPS<br>
Count of elements : 84<br>
Stream size : 3.39 KiB (0%)<br>
Language : Czech<br>
Default : No<br>
Forced : No<br>
<br>
Text #3<br>
ID : 5<br>
Format : UTF-8<br>
Codec ID : S_TEXT/UTF8<br>
Codec ID/Info : UTF-8 Plain Text<br>
Duration : 5 min 42 s<br>
Bit rate : 81 b/s<br>
Frame rate : 0.242 FPS<br>
Count of elements : 83<br>
Stream size : 3.42 KiB (0%)<br>
Language : Danish<br>
Default : No<br>
Forced : No<br>
<br>
Text #4<br>
ID : 6<br>
Format : UTF-8<br>
Codec ID : S_TEXT/UTF8<br>
Codec ID/Info : UTF-8 Plain Text<br>
Duration : 5 min 36 s<br>
Bit rate : 85 b/s<br>
Frame rate : 0.244 FPS<br>
Count of elements : 82<br>
Stream size : 3.52 KiB (0%)<br>
Language : German<br>
Default : No<br>
Forced : No<br>
<br>
Text #5<br>
ID : 7<br>
Format : UTF-8<br>
Codec ID : S_TEXT/UTF8<br>
Codec ID/Info : UTF-8 Plain Text<br>
Duration : 5 min 42 s<br>
Bit rate : 154 b/s<br>
Frame rate : 0.242 FPS<br>
Count of elements : 83<br>
Stream size : 6.46 KiB (0%)<br>
Language : Greek<br>
Default : No<br>
Forced : No<br>
<br>
Text #6<br>
ID : 8<br>
Format : UTF-8<br>
Codec ID : S_TEXT/UTF8<br>
Codec ID/Info : UTF-8 Plain Text<br>
Duration : 5 min 43 s<br>
Bit rate : 92 b/s<br>
Frame rate : 0.248 FPS<br>
Count of elements : 85<br>
Stream size : 3.88 KiB (0%)<br>
Title : Latin American<br>
Language : Spanish<br>
Default : No<br>
Forced : No<br>
<br>
Text #7<br>
ID : 9<br>
Format : UTF-8<br>
Codec ID : S_TEXT/UTF8<br>
Codec ID/Info : UTF-8 Plain Text<br>
Duration : 5 min 43 s<br>
Bit rate : 91 b/s<br>
Frame rate : 0.242 FPS<br>
Count of elements : 83<br>
Stream size : 3.83 KiB (0%)<br>
Title : European<br>
Language : Spanish<br>
Default : No<br>
Forced : No<br>
<br>
Text #8<br>
ID : 10<br>
Format : UTF-8<br>
Codec ID : S_TEXT/UTF8<br>
Codec ID/Info : UTF-8 Plain Text<br>
Duration : 5 min 43 s<br>
Bit rate : 80 b/s<br>
Frame rate : 0.245 FPS<br>
Count of elements : 84<br>
Stream size : 3.38 KiB (0%)<br>
Language : Finnish<br>
Default : No<br>
Forced : No<br>
<br>
Text #9<br>
ID : 11<br>
Format : UTF-8<br>
Codec ID : S_TEXT/UTF8<br>
Codec ID/Info : UTF-8 Plain Text<br>
Duration : 5 min 43 s<br>
Bit rate : 101 b/s<br>
Frame rate : 0.245 FPS<br>
Count of elements : 84<br>
Stream size : 4.26 KiB (0%)<br>
Language : French<br>
Default : No<br>
Forced : No<br>
<br>
Text #10<br>
ID : 12<br>
Format : UTF-8<br>
Codec ID : S_TEXT/UTF8<br>
Codec ID/Info : UTF-8 Plain Text<br>
Duration : 5 min 43 s<br>
Bit rate : 87 b/s<br>
Frame rate : 0.248 FPS<br>
Count of elements : 85<br>
Stream size : 3.66 KiB (0%)<br>
Language : Hungarian<br>
Default : No<br>
Forced : No<br>
<br>
Text #11<br>
ID : 13<br>
Format : UTF-8<br>
Codec ID : S_TEXT/UTF8<br>
Codec ID/Info : UTF-8 Plain Text<br>
Duration : 5 min 43 s<br>
Bit rate : 94 b/s<br>
Frame rate : 0.248 FPS<br>
Count of elements : 85<br>
Stream size : 3.96 KiB (0%)<br>
Language : Italian<br>
Default : No<br>
Forced : No<br>
<br>
Text #12<br>
ID : 14<br>
Format : UTF-8<br>
Codec ID : S_TEXT/UTF8<br>
Codec ID/Info : UTF-8 Plain Text<br>
Duration : 5 min 43 s<br>
Bit rate : 85 b/s<br>
Frame rate : 0.233 FPS<br>
Count of elements : 80<br>
Stream size : 3.57 KiB (0%)<br>
Language : Japanese<br>
Default : No<br>
Forced : No<br>
<br>
Text #13<br>
ID : 15<br>
Format : UTF-8<br>
Codec ID : S_TEXT/UTF8<br>
Codec ID/Info : UTF-8 Plain Text<br>
Duration : 5 min 43 s<br>
Bit rate : 94 b/s<br>
Frame rate : 0.248 FPS<br>
Count of elements : 85<br>
Stream size : 3.94 KiB (0%)<br>
Language : Korean<br>
Default : No<br>
Forced : No<br>
<br>
Text #14<br>
ID : 16<br>
Format : UTF-8<br>
Codec ID : S_TEXT/UTF8<br>
Codec ID/Info : UTF-8 Plain Text<br>
Duration : 5 min 36 s<br>
Bit rate : 80 b/s<br>
Frame rate : 0.241 FPS<br>
Count of elements : 81<br>
Stream size : 3.31 KiB (0%)<br>
Language : Dutch<br>
Default : No<br>
Forced : No<br>
<br>
Text #15<br>
ID : 17<br>
Format : UTF-8<br>
Codec ID : S_TEXT/UTF8<br>
Codec ID/Info : UTF-8 Plain Text<br>
Duration : 5 min 36 s<br>
Bit rate : 80 b/s<br>
Frame rate : 0.247 FPS<br>
Count of elements : 83<br>
Stream size : 3.30 KiB (0%)<br>
Language : Norwegian<br>
Default : No<br>
Forced : No<br>
<br>
Text #16<br>
ID : 18<br>
Format : UTF-8<br>
Codec ID : S_TEXT/UTF8<br>
Codec ID/Info : UTF-8 Plain Text<br>
Duration : 5 min 43 s<br>
Bit rate : 88 b/s<br>
Frame rate : 0.248 FPS<br>
Count of elements : 85<br>
Stream size : 3.71 KiB (0%)<br>
Language : Polish<br>
Default : No<br>
Forced : No<br>
<br>
Text #17<br>
ID : 19<br>
Format : UTF-8<br>
Codec ID : S_TEXT/UTF8<br>
Codec ID/Info : UTF-8 Plain Text<br>
Duration : 5 min 43 s<br>
Bit rate : 90 b/s<br>
Frame rate : 0.245 FPS<br>
Count of elements : 84<br>
Stream size : 3.79 KiB (0%)<br>
Title : Brazilian<br>
Language : Portuguese<br>
Default : No<br>
Forced : No<br>
<br>
Text #18<br>
ID : 20<br>
Format : UTF-8<br>
Codec ID : S_TEXT/UTF8<br>
Codec ID/Info : UTF-8 Plain Text<br>
Duration : 5 min 43 s<br>
Bit rate : 92 b/s<br>
Frame rate : 0.248 FPS<br>
Count of elements : 85<br>
Stream size : 3.87 KiB (0%)<br>
Title : European<br>
Language : Portuguese<br>
Default : No<br>
Forced : No<br>
<br>
Text #19<br>
ID : 21<br>
Format : UTF-8<br>
Codec ID : S_TEXT/UTF8<br>
Codec ID/Info : UTF-8 Plain Text<br>
Duration : 5 min 43 s<br>
Bit rate : 93 b/s<br>
Frame rate : 0.248 FPS<br>
Count of elements : 85<br>
Stream size : 3.91 KiB (0%)<br>
Language : Romanian<br>
Default : No<br>
Forced : No<br>
<br>
Text #20<br>
ID : 22<br>
Format : UTF-8<br>
Codec ID : S_TEXT/UTF8<br>
Codec ID/Info : UTF-8 Plain Text<br>
Duration : 5 min 43 s<br>
Bit rate : 92 b/s<br>
Frame rate : 0.248 FPS<br>
Count of elements : 85<br>
Stream size : 3.86 KiB (0%)<br>
Language : Slovak<br>
Default : No<br>
Forced : No<br>
<br>
Text #21<br>
ID : 23<br>
Format : UTF-8<br>
Codec ID : S_TEXT/UTF8<br>
Codec ID/Info : UTF-8 Plain Text<br>
Duration : 5 min 36 s<br>
Bit rate : 83 b/s<br>
Frame rate : 0.247 FPS<br>
Count of elements : 83<br>
Stream size : 3.42 KiB (0%)<br>
Language : Swedish<br>
Default : No<br>
Forced : No<br>
<br>
Text #22<br>
ID : 24<br>
Format : UTF-8<br>
Codec ID : S_TEXT/UTF8<br>
Codec ID/Info : UTF-8 Plain Text<br>
Duration : 5 min 36 s<br>
Bit rate : 90 b/s<br>
Frame rate : 0.247 FPS<br>
Count of elements : 83<br>
Stream size : 3.71 KiB (0%)<br>
Language : Turkish<br>
Default : No<br>
Forced : No<br>
<br>
Text #23<br>
ID : 25<br>
Format : UTF-8<br>
Codec ID : S_TEXT/UTF8<br>
Codec ID/Info : UTF-8 Plain Text<br>
Duration : 5 min 43 s<br>
Bit rate : 78 b/s<br>
Frame rate : 0.245 FPS<br>
Count of elements : 84<br>
Stream size : 3.27 KiB (0%)<br>
Title : Traditional, Hong Kong<br>
Language : Chinese<br>
Default : No<br>
Forced : No<br>
<br>
Text #24<br>
ID : 26<br>
Format : UTF-8<br>
Codec ID : S_TEXT/UTF8<br>
Codec ID/Info : UTF-8 Plain Text<br>
Duration : 5 min 43 s<br>
Bit rate : 83 b/s<br>
Frame rate : 0.245 FPS<br>
Count of elements : 84<br>
Stream size : 3.49 KiB (0%)<br>
Title : Simplified<br>
Language : Chinese<br>
Default : No<br>
Forced : No<br>
<br>
Text #25<br>
ID : 27<br>
Format : UTF-8<br>
Codec ID : S_TEXT/UTF8<br>
Codec ID/Info : UTF-8 Plain Text<br>
Duration : 5 min 43 s<br>
Bit rate : 86 b/s<br>
Frame rate : 0.248 FPS<br>
Count of elements : 85<br>
Stream size : 3.62 KiB (0%)<br>
Title : Traditional<br>
Language : Chinese<br>
Default : No<br>
Forced : No<br>
<br>
Menu<br>
00:00:00.000 : en:Scene 1<br>
00:00:25.886 : en:Intro<br>
00:00:36.296 : en:intro_end<br>
00:05:49.046 : en:Credits</div>
</div><br>
Screenshots:<br>
<img src="https://ptpimg.me/pbdrq9.jpg" class="bbCodeImage LbImage" alt="[​IMG]" data-url="https://ptpimg.me/pbdrq9.jpg" style=""> <br>
<br>
<div class="bbCodeBlock bbCodeVfcHH HiddenContent">
<div class="attribution type">Hidden Content:</div>
<blockquote>You must either reply or click 'Like' to see the hidden information contained here.</blockquote>
</div>
<div class="messageTextEndMarker">&nbsp;</div>
</blockquote>
</article>]]></description>
                <author><![CDATA[vjrhymes]]></author>
                </item>

                
                <item>
                <title><![CDATA[【Requests】[REQ AUD] - Bebe Rexha - I'm The Drama + My Oh My (Dolby Atmos M4A)]]></title>
                <link><![CDATA[https://sharemania.us/threads/bebe-rexha-im-the-drama-my-oh-my-dolby-atmos-m4a.249933/]]></link>
                <description><![CDATA[<article>
<blockquote class="messageText SelectQuoteContainer ugc baseHtml">
Princess Power:<img src="https://cdn2.broadcasthe.net/tvdb/banners/v4/series/428435/banners/63b0887f7cbe9.jpg" class="bbCodeImage LbImage" alt="[​IMG]" data-url="https://cdn2.broadcasthe.net/tvdb/banners/v4/series/428435/banners/63b0887f7cbe9.jpg" style=""> <br>
<br>
<div class="bbCodeBlock bbCodeQuote">
<aside>
<blockquote class="quoteContainer"><div class="quote"><i><b>Synopsis:</b></i><br>
Follow princesses of four major fruit kingdoms: Kira Kiwi, Beatrice “Bea” Blueberry, Rita Raspberry and Penelope “Penny” Pineapple as they embrace their differences and become stronger together to help their fellow fruitizens and make their world a better place.</div><div class="quoteExpand">Click to expand...</div></blockquote>
</aside>
</div>
<div class="ToggleTriggerAnchor bbCodeSpoilerContainer">
<button type="button" class="button bbCodeSpoilerButton ToggleTrigger Tooltip JsOnly" data-target="> .SpoilerTarget"><span>Spoiler: <span class="SpoilerTitle">MediaInfo</span></span></button>
<div class="SpoilerTarget bbCodeSpoilerText">General<br>
Unique ID : 31258389516296943296540692631452767189 (0x178425973177A4DD754E3E2B0969D3D5)<br>
Complete name : Princess.Power.S03E01.Four-Fruitdom.Princess.Coronation.1080p.NF.WEB-DL.DDP5.1.x264-LAZY.mkv<br>
Format : Matroska<br>
Format version : Version 4<br>
File size : 1.40 GiB<br>
Duration : 33 min 26 s<br>
Overall bit rate mode : Variable<br>
Overall bit rate : 6 010 kb/s<br>
Encoded date : UTC 2024-07-11 19:55:05<br>
Writing application : mkvmerge v85.0 ('Shame For You') 64-bit<br>
Writing library : libebml v1.4.5 + libmatroska v1.7.1<br>
<br>
Video<br>
ID : 1<br>
Format : AVC<br>
Format/Info : Advanced Video Codec<br>
Format profile : Main@L4<br>
Format settings : CABAC / 3 Ref Frames<br>
Format settings, CABAC : Yes<br>
Format settings, Reference frames : 3 frames<br>
Codec ID : V_MPEG4/ISO/AVC<br>
Duration : 33 min 26 s<br>
Bit rate mode : Variable<br>
Bit rate : 5 363 kb/s<br>
Nominal bit rate : 5 800 kb/s<br>
Maximum bit rate : 8 700 kb/s<br>
Width : 1 920 pixels<br>
Height : 1 080 pixels<br>
Display aspect ratio : 16:9<br>
Frame rate mode : Constant<br>
Frame rate : 24.000 FPS<br>
Color space : YUV<br>
Chroma subsampling : 4:2:0<br>
Bit depth : 8 bits<br>
Scan type : Progressive<br>
Bits/(Pixel*Frame) : 0.108<br>
Stream size : 1.25 GiB (89%)<br>
Writing library : x264 core 148 r2727 7d026e8<br>
Encoding settings : cabac=1 / ref=3 / deblock=1:0:0 / analyse=0x1:0x111 / me=umh / subme=10 / psy=1 / psy_rd=1.00:0.00 / mixed_ref=1 / me_range=24 / chroma_me=1 / trellis=2 / 8x8dct=0 / cqm=0 / deadzone=21,11 / fast_pskip=1 / chroma_qp_offset=-2 / threads=6 / lookahead_threads=1 / sliced_threads=0 / nr=0 / decimate=1 / interlaced=0 / bluray_compat=0 / stitchable=1 / constrained_intra=0 / bframes=2 / b_pyramid=0 / b_adapt=2 / b_bias=0 / direct=3 / weightb=1 / open_gop=0 / weightp=2 / keyint=240 / keyint_min=121 / scenecut=0 / intra_refresh=0 / rc_lookahead=48 / rc=2pass / mbtree=1 / bitrate=5800 / ratetol=1.0 / qcomp=0.50 / qpmin=6 / qpmax=51 / qpstep=4 / cplxblur=20.0 / qblur=0.5 / vbv_maxrate=8700 / vbv_bufsize=11600 / nal_hrd=vbr / filler=0 / ip_ratio=1.40 / aq=1:1.00<br>
Default : Yes<br>
Forced : No<br>
<br>
Audio<br>
ID : 2<br>
Format : E-AC-3<br>
Format/Info : Enhanced AC-3<br>
Commercial name : Dolby Digital Plus<br>
Codec ID : A_EAC3<br>
Duration : 33 min 26 s<br>
Bit rate mode : Constant<br>
Bit rate : 640 kb/s<br>
Channel(s) : 6 channels<br>
Channel layout : L R C LFE Ls Rs<br>
Sampling rate : 48.0 kHz<br>
Frame rate : 31.250 FPS (1536 SPF)<br>
Compression mode : Lossy<br>
Stream size : 153 MiB (11%)<br>
Language : English<br>
Service kind : Complete Main<br>
Default : Yes<br>
Forced : No<br>
<br>
Text #1<br>
ID : 3<br>
Format : UTF-8<br>
Codec ID : S_TEXT/UTF8<br>
Codec ID/Info : UTF-8 Plain Text<br>
Duration : 30 min 23 s<br>
Bit rate : 94 b/s<br>
Count of elements : 631<br>
Stream size : 20.9 KiB (0%)<br>
Title : SDH<br>
Language : English<br>
Default : No<br>
Forced : No<br>
<br>
Text #2<br>
ID : 4<br>
Format : UTF-8<br>
Codec ID : S_TEXT/UTF8<br>
Codec ID/Info : UTF-8 Plain Text<br>
Duration : 30 min 23 s<br>
Bit rate : 115 b/s<br>
Count of elements : 543<br>
Stream size : 25.8 KiB (0%)<br>
Language : Arabic<br>
Default : No<br>
Forced : No<br>
<br>
Text #3<br>
ID : 5<br>
Format : UTF-8<br>
Codec ID : S_TEXT/UTF8<br>
Codec ID/Info : UTF-8 Plain Text<br>
Duration : 30 min 25 s<br>
Bit rate : 71 b/s<br>
Count of elements : 506<br>
Stream size : 15.9 KiB (0%)<br>
Language : Czech<br>
Default : No<br>
Forced : No<br>
<br>
Text #4<br>
ID : 6<br>
Format : UTF-8<br>
Codec ID : S_TEXT/UTF8<br>
Codec ID/Info : UTF-8 Plain Text<br>
Duration : 30 min 26 s<br>
Bit rate : 64 b/s<br>
Count of elements : 453<br>
Stream size : 14.5 KiB (0%)<br>
Language : Danish<br>
Default : No<br>
Forced : No<br>
<br>
Text #5<br>
ID : 7<br>
Format : UTF-8<br>
Codec ID : S_TEXT/UTF8<br>
Codec ID/Info : UTF-8 Plain Text<br>
Duration : 30 min 26 s<br>
Bit rate : 68 b/s<br>
Count of elements : 458<br>
Stream size : 15.3 KiB (0%)<br>
Language : German<br>
Default : No<br>
Forced : No<br>
<br>
Text #6<br>
ID : 8<br>
Format : UTF-8<br>
Codec ID : S_TEXT/UTF8<br>
Codec ID/Info : UTF-8 Plain Text<br>
Duration : 30 min 26 s<br>
Bit rate : 122 b/s<br>
Count of elements : 458<br>
Stream size : 27.4 KiB (0%)<br>
Language : Greek<br>
Default : No<br>
Forced : No<br>
<br>
Text #7<br>
ID : 9<br>
Format : UTF-8<br>
Codec ID : S_TEXT/UTF8<br>
Codec ID/Info : UTF-8 Plain Text<br>
Duration : 30 min 24 s<br>
Bit rate : 82 b/s<br>
Count of elements : 528<br>
Stream size : 18.5 KiB (0%)<br>
Title : British<br>
Language : English<br>
Default : No<br>
Forced : No<br>
<br>
Text #8<br>
ID : 10<br>
Format : UTF-8<br>
Codec ID : S_TEXT/UTF8<br>
Codec ID/Info : UTF-8 Plain Text<br>
Duration : 30 min 25 s<br>
Bit rate : 74 b/s<br>
Count of elements : 442<br>
Stream size : 16.5 KiB (0%)<br>
Title : Latin American<br>
Language : Spanish<br>
Default : No<br>
Forced : No<br>
<br>
Text #9<br>
ID : 11<br>
Format : UTF-8<br>
Codec ID : S_TEXT/UTF8<br>
Codec ID/Info : UTF-8 Plain Text<br>
Duration : 30 min 26 s<br>
Bit rate : 69 b/s<br>
Count of elements : 464<br>
Stream size : 15.5 KiB (0%)<br>
Title : European<br>
Language : Spanish<br>
Default : No<br>
Forced : No<br>
<br>
Text #10<br>
ID : 12<br>
Format : UTF-8<br>
Codec ID : S_TEXT/UTF8<br>
Codec ID/Info : UTF-8 Plain Text<br>
Duration : 30 min 25 s<br>
Bit rate : 66 b/s<br>
Count of elements : 384<br>
Stream size : 14.7 KiB (0%)<br>
Language : Finnish<br>
Default : No<br>
Forced : No<br>
<br>
Text #11<br>
ID : 13<br>
Format : UTF-8<br>
Codec ID : S_TEXT/UTF8<br>
Codec ID/Info : UTF-8 Plain Text<br>
Duration : 30 min 26 s<br>
Bit rate : 74 b/s<br>
Count of elements : 525<br>
Stream size : 16.5 KiB (0%)<br>
Language : fil<br>
Default : No<br>
Forced : No<br>
<br>
Text #12<br>
ID : 14<br>
Format : UTF-8<br>
Codec ID : S_TEXT/UTF8<br>
Codec ID/Info : UTF-8 Plain Text<br>
Duration : 30 min 25 s<br>
Bit rate : 71 b/s<br>
Count of elements : 461<br>
Stream size : 15.9 KiB (0%)<br>
Language : French<br>
Default : No<br>
Forced : No<br>
<br>
Text #13<br>
ID : 15<br>
Format : UTF-8<br>
Codec ID : S_TEXT/UTF8<br>
Codec ID/Info : UTF-8 Plain Text<br>
Duration : 30 min 25 s<br>
Bit rate : 107 b/s<br>
Count of elements : 488<br>
Stream size : 24.0 KiB (0%)<br>
Language : Hebrew<br>
Default : No<br>
Forced : No<br>
<br>
Text #14<br>
ID : 16<br>
Format : UTF-8<br>
Codec ID : S_TEXT/UTF8<br>
Codec ID/Info : UTF-8 Plain Text<br>
Duration : 30 min 25 s<br>
Bit rate : 65 b/s<br>
Count of elements : 526<br>
Stream size : 14.6 KiB (0%)<br>
Language : Croatian<br>
Default : No<br>
Forced : No<br>
<br>
Text #15<br>
ID : 17<br>
Format : UTF-8<br>
Codec ID : S_TEXT/UTF8<br>
Codec ID/Info : UTF-8 Plain Text<br>
Duration : 30 min 26 s<br>
Bit rate : 71 b/s<br>
Count of elements : 451<br>
Stream size : 16.0 KiB (0%)<br>
Language : Hungarian<br>
Default : No<br>
Forced : No<br>
<br>
Text #16<br>
ID : 18<br>
Format : UTF-8<br>
Codec ID : S_TEXT/UTF8<br>
Codec ID/Info : UTF-8 Plain Text<br>
Duration : 30 min 25 s<br>
Bit rate : 73 b/s<br>
Count of elements : 482<br>
Stream size : 16.4 KiB (0%)<br>
Language : Indonesian<br>
Default : No<br>
Forced : No<br>
<br>
Text #17<br>
ID : 19<br>
Format : UTF-8<br>
Codec ID : S_TEXT/UTF8<br>
Codec ID/Info : UTF-8 Plain Text<br>
Duration : 30 min 25 s<br>
Bit rate : 66 b/s<br>
Count of elements : 472<br>
Stream size : 14.9 KiB (0%)<br>
Language : Italian<br>
Default : No<br>
Forced : No<br>
<br>
Text #18<br>
ID : 20<br>
Format : UTF-8<br>
Codec ID : S_TEXT/UTF8<br>
Codec ID/Info : UTF-8 Plain Text<br>
Duration : 30 min 25 s<br>
Bit rate : 85 b/s<br>
Count of elements : 500<br>
Stream size : 19.1 KiB (0%)<br>
Language : Japanese<br>
Default : No<br>
Forced : No<br>
<br>
Text #19<br>
ID : 21<br>
Format : UTF-8<br>
Codec ID : S_TEXT/UTF8<br>
Codec ID/Info : UTF-8 Plain Text<br>
Duration : 30 min 26 s<br>
Bit rate : 92 b/s<br>
Count of elements : 551<br>
Stream size : 20.6 KiB (0%)<br>
Language : Korean<br>
Default : No<br>
Forced : No<br>
<br>
Text #20<br>
ID : 22<br>
Format : UTF-8<br>
Codec ID : S_TEXT/UTF8<br>
Codec ID/Info : UTF-8 Plain Text<br>
Duration : 30 min 25 s<br>
Bit rate : 64 b/s<br>
Count of elements : 478<br>
Stream size : 14.4 KiB (0%)<br>
Language : Malay<br>
Default : No<br>
Forced : No<br>
<br>
Text #21<br>
ID : 23<br>
Format : UTF-8<br>
Codec ID : S_TEXT/UTF8<br>
Codec ID/Info : UTF-8 Plain Text<br>
Duration : 30 min 26 s<br>
Bit rate : 65 b/s<br>
Count of elements : 415<br>
Stream size : 14.6 KiB (0%)<br>
Language : Norwegian Bokmal<br>
Default : No<br>
Forced : No<br>
<br>
Text #22<br>
ID : 24<br>
Format : UTF-8<br>
Codec ID : S_TEXT/UTF8<br>
Codec ID/Info : UTF-8 Plain Text<br>
Duration : 30 min 25 s<br>
Bit rate : 66 b/s<br>
Count of elements : 453<br>
Stream size : 14.7 KiB (0%)<br>
Language : Dutch<br>
Default : No<br>
Forced : No<br>
<br>
Text #23<br>
ID : 25<br>
Format : UTF-8<br>
Codec ID : S_TEXT/UTF8<br>
Codec ID/Info : UTF-8 Plain Text<br>
Duration : 30 min 25 s<br>
Bit rate : 67 b/s<br>
Count of elements : 479<br>
Stream size : 14.9 KiB (0%)<br>
Language : Polish<br>
Default : No<br>
Forced : No<br>
<br>
Text #24<br>
ID : 26<br>
Format : UTF-8<br>
Codec ID : S_TEXT/UTF8<br>
Codec ID/Info : UTF-8 Plain Text<br>
Duration : 30 min 25 s<br>
Bit rate : 66 b/s<br>
Count of elements : 494<br>
Stream size : 14.7 KiB (0%)<br>
Title : Brazilian<br>
Language : Portuguese<br>
Default : No<br>
Forced : No<br>
<br>
Text #25<br>
ID : 27<br>
Format : UTF-8<br>
Codec ID : S_TEXT/UTF8<br>
Codec ID/Info : UTF-8 Plain Text<br>
Duration : 30 min 25 s<br>
Bit rate : 73 b/s<br>
Count of elements : 434<br>
Stream size : 16.4 KiB (0%)<br>
Title : European<br>
Language : Portuguese<br>
Default : No<br>
Forced : No<br>
<br>
Text #26<br>
ID : 28<br>
Format : UTF-8<br>
Codec ID : S_TEXT/UTF8<br>
Codec ID/Info : UTF-8 Plain Text<br>
Duration : 30 min 26 s<br>
Bit rate : 71 b/s<br>
Count of elements : 459<br>
Stream size : 16.0 KiB (0%)<br>
Language : Romanian<br>
Default : No<br>
Forced : No<br>
<br>
Text #27<br>
ID : 29<br>
Format : UTF-8<br>
Codec ID : S_TEXT/UTF8<br>
Codec ID/Info : UTF-8 Plain Text<br>
Duration : 30 min 25 s<br>
Bit rate : 117 b/s<br>
Count of elements : 515<br>
Stream size : 26.2 KiB (0%)<br>
Language : Russian<br>
Default : No<br>
Forced : No<br>
<br>
Text #28<br>
ID : 30<br>
Format : UTF-8<br>
Codec ID : S_TEXT/UTF8<br>
Codec ID/Info : UTF-8 Plain Text<br>
Duration : 30 min 25 s<br>
Bit rate : 71 b/s<br>
Count of elements : 391<br>
Stream size : 16.0 KiB (0%)<br>
Language : Swedish<br>
Default : No<br>
Forced : No<br>
<br>
Text #29<br>
ID : 31<br>
Format : UTF-8<br>
Codec ID : S_TEXT/UTF8<br>
Codec ID/Info : UTF-8 Plain Text<br>
Duration : 30 min 25 s<br>
Bit rate : 211 b/s<br>
Count of elements : 543<br>
Stream size : 47.2 KiB (0%)<br>
Language : Thai<br>
Default : No<br>
Forced : No<br>
<br>
Text #30<br>
ID : 32<br>
Format : UTF-8<br>
Codec ID : S_TEXT/UTF8<br>
Codec ID/Info : UTF-8 Plain Text<br>
Duration : 30 min 24 s<br>
Bit rate : 72 b/s<br>
Count of elements : 435<br>
Stream size : 16.1 KiB (0%)<br>
Language : Turkish<br>
Default : No<br>
Forced : No<br>
<br>
Text #31<br>
ID : 33<br>
Format : UTF-8<br>
Codec ID : S_TEXT/UTF8<br>
Codec ID/Info : UTF-8 Plain Text<br>
Duration : 30 min 24 s<br>
Bit rate : 117 b/s<br>
Count of elements : 475<br>
Stream size : 26.3 KiB (0%)<br>
Language : Ukrainian<br>
Default : No<br>
Forced : No<br>
<br>
Text #32<br>
ID : 34<br>
Format : UTF-8<br>
Codec ID : S_TEXT/UTF8<br>
Codec ID/Info : UTF-8 Plain Text<br>
Duration : 30 min 25 s<br>
Bit rate : 85 b/s<br>
Count of elements : 544<br>
Stream size : 19.1 KiB (0%)<br>
Language : Vietnamese<br>
Default : No<br>
Forced : No<br>
<br>
Text #33<br>
ID : 35<br>
Format : UTF-8<br>
Codec ID : S_TEXT/UTF8<br>
Codec ID/Info : UTF-8 Plain Text<br>
Duration : 30 min 25 s<br>
Bit rate : 72 b/s<br>
Count of elements : 543<br>
Stream size : 16.2 KiB (0%)<br>
Title : Simplified<br>
Language : Chinese<br>
Default : No<br>
Forced : No<br>
<br>
Text #34<br>
ID : 36<br>
Format : UTF-8<br>
Codec ID : S_TEXT/UTF8<br>
Codec ID/Info : UTF-8 Plain Text<br>
Duration : 30 min 25 s<br>
Bit rate : 75 b/s<br>
Count of elements : 542<br>
Stream size : 16.8 KiB (0%)<br>
Title : Traditional<br>
Language : Chinese<br>
Default : No<br>
Forced : No<br>
<br>
Menu<br>
00:00:00.000 : en:Scene 1<br>
00:00:05.000 : en:Intro<br>
00:00:43.416 : en:Scene 2<br>
00:30:05.000 : en:Credits</div>
</div><br>
Screenshots:<br>
<img src="https://ptpimg.me/eom852.jpg" class="bbCodeImage LbImage" alt="[​IMG]" data-url="https://ptpimg.me/eom852.jpg" style=""> <br>
<br>
<div class="bbCodeBlock bbCodeVfcHH HiddenContent">
<div class="attribution type">Hidden Content:</div>
<blockquote>You must either reply or click 'Like' to see the hidden information contained here.</blockquote>
</div>
<div class="messageTextEndMarker">&nbsp;</div>
</blockquote>
</article>]]></description>
                <author><![CDATA[bebesab]]></author>
                </item>

                
                <item>
                <title><![CDATA[【Cinema Center】SERIES - Paw Patrol - Season 2 - 1080p Netflix WEB-DL AAC2.0 x264-LAZY]]></title>
                <link><![CDATA[https://sharemania.us/threads/paw-patrol-season-2-1080p-netflix-web-dl-aac2-0-x264-lazy.249940/]]></link>
                <description><![CDATA[<article>
<blockquote class="messageText SelectQuoteContainer ugc baseHtml">
<div style="text-align: center"><a href="https://ibb.co/H2PqG8p" target="_blank" class="externalLink" rel="nofollow"><img src="https://i.ibb.co/JdpHrJF/DC-Project-feat-Alexa-Mary-s-Prayer-VHZ-iris2-1-mp4-thumbs.jpg" class="bbCodeImage LbImage" alt="[​IMG]" data-url="https://i.ibb.co/JdpHrJF/DC-Project-feat-Alexa-Mary-s-Prayer-VHZ-iris2-1-mp4-thumbs.jpg"></a><br>
<br>
<div class="bbCodeBlock bbCodeVfcHH HiddenContent">
<div class="attribution type">Hidden Content:</div>
<blockquote>You must either reply or click 'Like' to see the hidden information contained here.</blockquote>
</div></div>
<div class="messageTextEndMarker">&nbsp;</div>
</blockquote>
</article>]]></description>
                <author><![CDATA[LazyRips]]></author>
                </item>

                
                <item>
                <title><![CDATA[【UPSCALED】Aaliyah - Try Again (2160p)]]></title>
                <link><![CDATA[https://sharemania.us/threads/aaliyah-try-again-2160p.249936/]]></link>
                <description><![CDATA[<article>
<blockquote class="messageText SelectQuoteContainer ugc baseHtml">
does anyone have the dolby atmos m4a for these songs??<br>
<br>
Bebe Rexha - I'm The Drama <a href="https://tidal.com/track/371753938?u" target="_blank" class="externalLink" rel="nofollow">https://tidal.com/track/371753938?u</a><br>
<br>
Kylie Minogue, Bebe Rexha, Tove Lo - My Oh My <a href="https://tidal.com/track/373495888?u" target="_blank" class="externalLink" rel="nofollow">https://tidal.com/track/373495888?u</a><br>
<br>
thank you!! &lt;3
<div class="messageTextEndMarker">&nbsp;</div>
</blockquote>
</article>]]></description>
                <author><![CDATA[vjrhymes]]></author>
                </item>

                
                <item>
                <title><![CDATA[【Music Videos】Ch!pz - Gangstertown (1080p) VJ-RoGeRs Video Edit (Clean)]]></title>
                <link><![CDATA[https://sharemania.us/threads/ch-pz-gangstertown-1080p-vj-rogers-video-edit-clean.249935/]]></link>
                <description><![CDATA[<article>
<blockquote class="messageText SelectQuoteContainer ugc baseHtml">
Paw Patrol:<img src="https://i.imgur.com/cpwCcSu.jpg" class="bbCodeImage LbImage" alt="[​IMG]" data-url="https://i.imgur.com/cpwCcSu.jpg" style=""><br>
<br>
<div class="bbCodeBlock bbCodeQuote">
<aside>
<blockquote class="quoteContainer"><div class="quote"><i><b>Synopsis:</b></i><br>
PAW Patrol is a CG action-adventure for old children and preschool series starring a pack of six heroic puppies led by a tech-savvy 10-year-old boy named Ryder.</div><div class="quoteExpand">Click to expand...</div></blockquote>
</aside>
</div>
<div class="ToggleTriggerAnchor bbCodeSpoilerContainer">
<button type="button" class="button bbCodeSpoilerButton ToggleTrigger Tooltip JsOnly" data-target="> .SpoilerTarget"><span>Spoiler: <span class="SpoilerTitle">MediaInfo</span></span></button>
<div class="SpoilerTarget bbCodeSpoilerText">General<br>
Unique ID : 121167571113872507024781268901056342187 (0x5B28067D512F9A280D75C78641C5E8AB)<br>
Complete name : Paw.Patrol.S02E01E02.Pups.Save.the.Penguins.-.Pups.Save.a.Dolphin.Pup.1080p.NF.WEB-DL.AAC2.0.x264-LAZY.mkv<br>
Format : Matroska<br>
Format version : Version 4<br>
File size : 511 MiB<br>
Duration : 23 min 15 s<br>
Overall bit rate mode : Variable<br>
Overall bit rate : 3 073 kb/s<br>
Encoded date : UTC 2024-07-06 16:23:03<br>
Writing application : mkvmerge v85.0 ('Shame For You') 64-bit<br>
Writing library : libebml v1.4.5 + libmatroska v1.7.1<br>
<br>
Video<br>
ID : 1<br>
Format : AVC<br>
Format/Info : Advanced Video Codec<br>
Format profile : Main@L4<br>
Format settings : CABAC / 3 Ref Frames<br>
Format settings, CABAC : Yes<br>
Format settings, Reference frames : 3 frames<br>
Codec ID : V_MPEG4/ISO/AVC<br>
Duration : 23 min 15 s<br>
Bit rate mode : Variable<br>
Bit rate : 2 943 kb/s<br>
Nominal bit rate : 3 238 kb/s<br>
Maximum bit rate : 4 980 kb/s<br>
Width : 1 920 pixels<br>
Height : 1 080 pixels<br>
Display aspect ratio : 16:9<br>
Frame rate mode : Constant<br>
Frame rate : 23.976 (24000/1001) FPS<br>
Color space : YUV<br>
Chroma subsampling : 4:2:0<br>
Bit depth : 8 bits<br>
Scan type : Progressive<br>
Bits/(Pixel*Frame) : 0.059<br>
Stream size : 489 MiB (96%)<br>
Writing library : x264 core 148 r2727 7d026e8<br>
Encoding settings : cabac=1 / ref=3 / deblock=1:0:0 / analyse=0x1:0x111 / me=umh / subme=10 / psy=1 / psy_rd=1.00:0.00 / mixed_ref=1 / me_range=24 / chroma_me=1 / trellis=2 / 8x8dct=0 / cqm=0 / deadzone=21,11 / fast_pskip=1 / chroma_qp_offset=-2 / threads=8 / lookahead_threads=1 / sliced_threads=0 / nr=0 / decimate=1 / interlaced=0 / bluray_compat=0 / stitchable=1 / constrained_intra=0 / bframes=2 / b_pyramid=0 / b_adapt=2 / b_bias=0 / direct=3 / weightb=1 / open_gop=0 / weightp=2 / keyint=250 / keyint_min=23 / scenecut=0 / intra_refresh=0 / rc_lookahead=48 / rc=2pass / mbtree=1 / bitrate=3238 / ratetol=1.0 / qcomp=0.50 / qpmin=6 / qpmax=51 / qpstep=4 / cplxblur=20.0 / qblur=0.5 / vbv_maxrate=4980 / vbv_bufsize=6640 / nal_hrd=vbr / filler=0 / ip_ratio=1.40 / aq=1:1.00<br>
Default : Yes<br>
Forced : No<br>
<br>
Audio<br>
ID : 2<br>
Format : AAC LC SBR<br>
Format/Info : Advanced Audio Codec Low Complexity with Spectral Band Replication<br>
Commercial name : HE-AAC<br>
Format settings : Explicit<br>
Codec ID : A_AAC-2<br>
Duration : 23 min 15 s<br>
Bit rate : 128 kb/s<br>
Channel(s) : 2 channels<br>
Channel layout : L R<br>
Sampling rate : 48.0 kHz<br>
Frame rate : 23.438 FPS (2048 SPF)<br>
Compression mode : Lossy<br>
Stream size : 21.3 MiB (4%)<br>
Language : English<br>
Default : Yes<br>
Forced : No<br>
<br>
Text<br>
ID : 3<br>
Format : UTF-8<br>
Codec ID : S_TEXT/UTF8<br>
Codec ID/Info : UTF-8 Plain Text<br>
Duration : 22 min 37 s<br>
Bit rate : 68 b/s<br>
Count of elements : 503<br>
Stream size : 11.3 KiB (0%)<br>
Title : SDH<br>
Language : English<br>
Default : No<br>
Forced : No<br>
<br>
Menu<br>
00:00:00.000 : en:Intro<br>
00:00:43.461 : en:Scene 1<br>
00:22:45.000 : en:Credits</div>
</div><br>
Screenshots:<br>
<img src="https://ptpimg.me/6r8a97.jpg" class="bbCodeImage LbImage" alt="[​IMG]" data-url="https://ptpimg.me/6r8a97.jpg" style=""> <br>
<div class="bbCodeBlock bbCodeVfcHH HiddenContent">
<div class="attribution type">Hidden Content:</div>
<blockquote>You must either reply or click 'Like' to see the hidden information contained here.</blockquote>
</div>
<div class="messageTextEndMarker">&nbsp;</div>
</blockquote>
</article>]]></description>
                <author><![CDATA[DJ-RoGeRs-BS]]></author>
                </item>

                
                <item>
                <title><![CDATA[【Albums (lossless)】WAV - Dream - It Was All A Dream]]></title>
                <link><![CDATA[https://sharemania.us/threads/dream-it-was-all-a-dream.249929/]]></link>
                <description><![CDATA[<article>
<blockquote class="messageText SelectQuoteContainer ugc baseHtml">
<a href="https://ibb.co/VYg0bMW" target="_blank" class="externalLink" rel="nofollow"><img src="https://i.ibb.co/m59rdhC/Aaliyah-Try-Again-2000-chf3-iris2-mp4-thumbs.jpg" class="bbCodeImage LbImage" alt="[​IMG]" data-url="https://i.ibb.co/m59rdhC/Aaliyah-Try-Again-2000-chf3-iris2-mp4-thumbs.jpg"></a><br>
<a href="https://ibb.co/FwVP27d" target="_blank" class="externalLink" rel="nofollow"><img src="https://i.ibb.co/WytTZKR/Aaliyah-Try-Again-2000-chf3-iris2-mp4-snapshot-00-51-619.jpg" class="bbCodeImage LbImage" alt="[​IMG]" data-url="https://i.ibb.co/WytTZKR/Aaliyah-Try-Again-2000-chf3-iris2-mp4-snapshot-00-51-619.jpg"></a><br>
<a href="https://ibb.co/xjpRdXn" target="_blank" class="externalLink" rel="nofollow"><img src="https://i.ibb.co/LtL2HYT/Aaliyah-Try-Again-2000-chf3-iris2-mp4-snapshot-01-14-113.jpg" class="bbCodeImage LbImage" alt="[​IMG]" data-url="https://i.ibb.co/LtL2HYT/Aaliyah-Try-Again-2000-chf3-iris2-mp4-snapshot-01-14-113.jpg"></a><br>
<a href="https://ibb.co/SNFwntC" target="_blank" class="externalLink" rel="nofollow"><img src="https://i.ibb.co/b1c5Bs9/Aaliyah-Try-Again-2000-chf3-iris2-mp4-snapshot-01-40-388.jpg" class="bbCodeImage LbImage" alt="[​IMG]" data-url="https://i.ibb.co/b1c5Bs9/Aaliyah-Try-Again-2000-chf3-iris2-mp4-snapshot-01-40-388.jpg"></a><br>
<br>
<b>password: 1234</b><br>
<br>
<div style="text-align: center"><b>
<div class="bbCodeBlock bbCodeVfcHH HiddenContent">
<div class="attribution type">Hidden Content:</div>
<blockquote>You must either reply or click 'Like' to see the hidden information contained here.</blockquote>
</div></b>​</div>
<div class="messageTextEndMarker">&nbsp;</div>
</blockquote>
</article>]]></description>
                <author><![CDATA[ifuseekme]]></author>
                </item>

                
                <item>
                <title><![CDATA[【Cinema Center】SERIES - Bakugan (2023) Season 1 1080p Netflix WEB-DL DDP5.1 x264-LAZY]]></title>
                <link><![CDATA[https://sharemania.us/threads/bakugan-2023-season-1-1080p-netflix-web-dl-ddp5-1-x264-lazy.249939/]]></link>
                <description><![CDATA[<article>
<blockquote class="messageText SelectQuoteContainer ugc baseHtml">
<img src="https://i.ibb.co/zhXTdWn/Chipz-Gangstertown-1080p-VJ-Ro-Ge-Rs-Video-Edit-mp4-thumbs-2024-07-14-19-51-32.jpg" class="bbCodeImage LbImage" alt="[​IMG]" data-url="https://i.ibb.co/zhXTdWn/Chipz-Gangstertown-1080p-VJ-Ro-Ge-Rs-Video-Edit-mp4-thumbs-2024-07-14-19-51-32.jpg" style=""> <br>
<br>
<div class="ToggleTriggerAnchor bbCodeSpoilerContainer">
<button type="button" class="button bbCodeSpoilerButton ToggleTrigger Tooltip JsOnly" data-target="> .SpoilerTarget"><span>Spoiler: <span class="SpoilerTitle">MediaInfo</span></span></button>
<div class="SpoilerTarget bbCodeSpoilerText">Chipz - Gangstertown (1080p) VJ-RoGeRs Video Edit.mp4<br>
Format : MPEG-4<br>
Format profile : Base Media / Version 2<br>
Codec ID : mp42 (mp42/mp41)<br>
File size : 355 MiB<br>
Duration : 4 min 49 s<br>
Overall bit rate mode : Variable<br>
Overall bit rate : 10.3 Mb/s<br>
Frame rate : 30.000 FPS<br>
Encoded date : 2024-07-14 22:27:35 UTC<br>
Tagged date : 2024-07-14 23:10:24 UTC<br>
TIM : 00:00:00:00<br>
TSC : 30<br>
TSZ : 1<br>
<br>
Video<br>
ID : 1<br>
Format : AVC<br>
Format/Info : Advanced Video Codec<br>
Format profile : Main@L4.1<br>
Format settings : CABAC / 4 Ref Frames<br>
Format settings, CABAC : Yes<br>
Format settings, Reference : 4 frames<br>
Codec ID : avc1<br>
Codec ID/Info : Advanced Video Coding<br>
Duration : 4 min 49 s<br>
Bit rate : 9 951 kb/s<br>
Width : 1 920 pixels<br>
Height : 1 080 pixels<br>
Display aspect ratio : 16:9<br>
Frame rate mode : Constant<br>
Frame rate : 30.000 FPS<br>
Color space : YUV<br>
Chroma subsampling : 4:2:0<br>
Bit depth : 8 bits<br>
Scan type : Progressive<br>
Bits/(Pixel*Frame) : 0.160<br>
Stream size : 343 MiB (97%)<br>
Language : English<br>
Encoded date : 2024-07-14 22:27:49 UTC<br>
Tagged date : 2024-07-14 22:27:49 UTC<br>
Color range : Limited<br>
Color primaries : BT.709<br>
Transfer characteristics : BT.709<br>
Matrix coefficients : BT.709<br>
Codec configuration box : avcC<br>
<br>
Audio<br>
ID : 2<br>
Format : AAC LC<br>
Format/Info : Advanced Audio Codec Low Complexity<br>
Codec ID : mp4a-40-2<br>
Duration : 4 min 49 s<br>
Source duration : 4 min 49 s<br>
Bit rate mode : Variable<br>
Bit rate : 317 kb/s<br>
Maximum bit rate : 400 kb/s<br>
Channel(s) : 2 channels<br>
Channel layout : L R<br>
Sampling rate : 48.0 kHz<br>
Frame rate : 46.875 FPS (1024 SPF)<br>
Compression mode : Lossy<br>
Stream size : 11.0 MiB (3%)<br>
Source stream size : 11.0 MiB (3%)<br>
Language : English<br>
Encoded date : 2024-07-14 22:27:44 UTC<br>
Tagged date : 2024-07-14 22:27:44 UTC</div>
</div><br>
<div class="bbCodeBlock bbCodeVfcHH HiddenContent">
<div class="attribution type">Hidden Content:</div>
<blockquote>You must reply before you can see the hidden data contained here.</blockquote>
</div>
<div class="messageTextEndMarker">&nbsp;</div>
</blockquote>
</article>]]></description>
                <author><![CDATA[LazyRips]]></author>
                </item>

                </channel></rss>